M48
; DRILL file KiCad 10.0.1 date 2026-07-01T11:12:45
; FORMAT={-:-/ absolute / metric / decimal}
; #@! TF.CreationDate,2026-07-01T11:12:45+03:00
; #@! TF.GenerationSoftware,Kicad,Pcbnew,10.0.1
; #@! TF.FileFunction,Plated,1,2,PTH
FMAT,2
METRIC
; #@! TA.AperFunction,Plated,PTH,ViaDrill
T1C0.300
; #@! TA.AperFunction,Plated,PTH,ComponentDrill
T2C0.750
; #@! TA.AperFunction,Plated,PTH,ComponentDrill
T3C0.800
; #@! TA.AperFunction,Plated,PTH,ComponentDrill
T4C0.900
; #@! TA.AperFunction,Plated,PTH,ComponentDrill
T5C1.000
; #@! TA.AperFunction,Plated,PTH,ComponentDrill
T6C1.050
; #@! TA.AperFunction,Plated,PTH,ComponentDrill
T7C1.100
; #@! TA.AperFunction,Plated,PTH,ComponentDrill
T8C1.200
; #@! TA.AperFunction,Plated,PTH,ComponentDrill
T9C2.500
%
G90
G05
T1
X54.998Y-149.998
X55.5Y-93.0
X63.4Y-83.0
X71.235Y-52.0
X74.203Y-68.297
X76.752Y-98.248
X77.453Y-71.547
X78.801Y-71.199
X80.703Y-74.797
X86.0Y-94.5
X87.246Y-97.443
X91.707Y-73.293
X94.674Y-69.174
X94.82Y-76.406
X97.231Y-80.731
X116.7Y-47.726
T2
X46.0Y-157.0
X47.27Y-157.0
X48.54Y-157.0
X115.14Y-144.73
X115.14Y-146.0
X115.14Y-147.27
T3
X33.0Y-87.5
X35.06Y-97.5
X38.0Y-87.5
X39.94Y-97.5
X40.5Y-72.5
X40.5Y-77.5
X45.5Y-93.5
X47.5Y-73.0
X48.69Y-83.0
X50.5Y-93.5
X55.12Y-73.0
X56.0Y-144.5
X56.31Y-83.0
X63.62Y-144.5
X64.0Y-69.9
X64.0Y-77.5
X65.18Y-84.0
X65.18Y-99.24
X67.72Y-84.0
X67.72Y-99.24
X70.26Y-84.0
X70.26Y-99.24
X72.19Y-71.5
X72.8Y-84.0
X72.8Y-99.24
X75.34Y-84.0
X75.34Y-99.24
X77.88Y-84.0
X77.88Y-99.24
X78.19Y-140.5
X79.81Y-71.5
X80.42Y-84.0
X80.42Y-99.24
X82.96Y-84.0
X82.96Y-99.24
X85.5Y-84.0
X85.5Y-99.24
X85.81Y-140.5
X86.19Y-105.5
X88.04Y-84.0
X88.04Y-99.24
X89.19Y-140.5
X90.58Y-84.0
X90.58Y-99.24
X93.12Y-84.0
X93.12Y-99.24
X93.81Y-105.5
X95.66Y-84.0
X95.66Y-99.24
X96.81Y-140.5
X98.2Y-84.0
X98.2Y-99.24
X99.88Y-141.0
X100.74Y-84.0
X100.74Y-99.24
X103.28Y-84.0
X103.28Y-99.24
X105.82Y-84.0
X105.82Y-99.24
X107.5Y-141.0
X108.36Y-84.0
X108.36Y-99.24
X108.69Y-129.5
X109.69Y-61.5
X110.9Y-84.0
X110.9Y-99.24
X113.44Y-84.0
X113.44Y-99.24
X116.31Y-129.5
X117.31Y-61.5
X132.0Y-91.0
X132.0Y-96.0
X138.0Y-63.5
X143.0Y-63.5
T4
X46.5Y-141.0
X49.04Y-141.0
X79.46Y-151.0
X82.0Y-151.0
X89.23Y-149.5
X89.23Y-152.04
X99.0Y-149.735
X99.0Y-152.275
T5
X140.0Y-141.7
X140.0Y-149.3
T6
X28.19Y-134.3
X28.19Y-136.84
X28.19Y-147.0
X35.81Y-134.3
X35.81Y-136.84
X35.81Y-147.0
T7
X116.0Y-42.5
X116.0Y-47.0
X122.5Y-42.5
X122.5Y-47.0
X138.5Y-41.5
X138.5Y-48.0
X143.0Y-41.5
X143.0Y-48.0
T8
X57.26Y-51.0
X59.8Y-51.0
X62.34Y-51.0
X64.88Y-51.0
X67.42Y-51.0
X69.96Y-51.0
X72.5Y-51.0
X75.04Y-51.0
X77.58Y-51.0
X80.12Y-51.0
X82.66Y-51.0
X85.2Y-51.0
X87.74Y-51.0
X90.28Y-51.0
X92.82Y-51.0
X95.36Y-51.0
T9
X25.86Y-51.0
X25.861Y-19.999
X100.859Y-19.999
X100.859Y-51.0
M30
