%TF.GenerationSoftware,KiCad,Pcbnew,10.0.1*%
%TF.CreationDate,2026-07-01T11:19:35+03:00*%
%TF.ProjectId,AUTOMATIC LIGHT SENSOR,4155544f-4d41-4544-9943-204c49474854,rev?*%
%TF.SameCoordinates,Original*%
%TF.FileFunction,Copper,L1,Top*%
%TF.FilePolarity,Positive*%
%FSLAX46Y46*%
G04 Gerber Fmt 4.6, Leading zero omitted, Abs format (unit mm)*
G04 Created by KiCad (PCBNEW 10.0.1) date 2026-07-01 11:19:35*
%MOMM*%
%LPD*%
G01*
G04 APERTURE LIST*
G04 Aperture macros list*
%AMRoundRect*
0 Rectangle with rounded corners*
0 $1 Rounding radius*
0 $2 $3 $4 $5 $6 $7 $8 $9 X,Y pos of 4 corners*
0 Add a 4 corners polygon primitive as box body*
4,1,4,$2,$3,$4,$5,$6,$7,$8,$9,$2,$3,0*
0 Add four circle primitives for the rounded corners*
1,1,$1+$1,$2,$3*
1,1,$1+$1,$4,$5*
1,1,$1+$1,$6,$7*
1,1,$1+$1,$8,$9*
0 Add four rect primitives between the rounded corners*
20,1,$1+$1,$2,$3,$4,$5,0*
20,1,$1+$1,$4,$5,$6,$7,0*
20,1,$1+$1,$6,$7,$8,$9,0*
20,1,$1+$1,$8,$9,$2,$3,0*%
G04 Aperture macros list end*
%TA.AperFunction,ComponentPad*%
%ADD10C,1.600000*%
%TD*%
%TA.AperFunction,ComponentPad*%
%ADD11C,1.500000*%
%TD*%
%TA.AperFunction,ComponentPad*%
%ADD12C,2.000000*%
%TD*%
%TA.AperFunction,ComponentPad*%
%ADD13R,1.800000X1.800000*%
%TD*%
%TA.AperFunction,ComponentPad*%
%ADD14C,1.800000*%
%TD*%
%TA.AperFunction,ComponentPad*%
%ADD15RoundRect,0.250000X0.550000X-0.550000X0.550000X0.550000X-0.550000X0.550000X-0.550000X-0.550000X0*%
%TD*%
%TA.AperFunction,ComponentPad*%
%ADD16R,1.500000X1.050000*%
%TD*%
%TA.AperFunction,ComponentPad*%
%ADD17O,1.500000X1.050000*%
%TD*%
%TA.AperFunction,ComponentPad*%
%ADD18C,3.000000*%
%TD*%
%TA.AperFunction,ComponentPad*%
%ADD19R,1.800000X2.600000*%
%TD*%
%TA.AperFunction,ComponentPad*%
%ADD20O,1.800000X2.600000*%
%TD*%
%TA.AperFunction,ComponentPad*%
%ADD21R,2.000000X2.000000*%
%TD*%
%TA.AperFunction,ComponentPad*%
%ADD22R,1.050000X1.500000*%
%TD*%
%TA.AperFunction,ComponentPad*%
%ADD23O,1.050000X1.500000*%
%TD*%
%TA.AperFunction,ComponentPad*%
%ADD24C,1.900000*%
%TD*%
%TA.AperFunction,ComponentPad*%
%ADD25RoundRect,0.250000X-0.700000X-0.700000X0.700000X-0.700000X0.700000X0.700000X-0.700000X0.700000X0*%
%TD*%
%TA.AperFunction,ViaPad*%
%ADD26C,0.600000*%
%TD*%
%TA.AperFunction,Conductor*%
%ADD27C,0.200000*%
%TD*%
G04 APERTURE END LIST*
D10*
%TO.P,R9,1*%
%TO.N,+5V*%
X56310000Y-83000000D03*
%TO.P,R9,2*%
%TO.N,Net-(U1-PA1)*%
X48690000Y-83000000D03*
%TD*%
%TO.P,R5,1*%
%TO.N,Net-(U1-PA0)*%
X64000000Y-69900000D03*
%TO.P,R5,2*%
%TO.N,Net-(R1-Pad1)*%
X64000000Y-77500000D03*
%TD*%
D11*
%TO.P,Y1,1,1_1*%
%TO.N,Net-(U1-XTAL1)*%
X35060000Y-97500000D03*
%TO.P,Y1,2,2_2*%
%TO.N,Net-(U1-XTAL2)*%
X39940000Y-97500000D03*
%TD*%
D12*
%TO.P,SW1,1,1_1*%
%TO.N,Net-(U1-PA1)*%
X122500000Y-47000000D03*
X116000000Y-47000000D03*
%TO.P,SW1,2,2_2*%
%TO.N,GND*%
X122500000Y-42500000D03*
X116000000Y-42500000D03*
%TD*%
D13*
%TO.P,D2,1,K_1*%
%TO.N,GND*%
X89230000Y-152040000D03*
D14*
%TO.P,D2,2,A_2*%
%TO.N,Net-(D2-A)*%
X89230000Y-149500000D03*
%TD*%
D10*
%TO.P,R1,1*%
%TO.N,Net-(R1-Pad1)*%
X55120000Y-73000000D03*
%TO.P,R1,2*%
%TO.N,+5V*%
X47500000Y-73000000D03*
%TD*%
%TO.P,R2,1*%
%TO.N,GND*%
X72190000Y-71500000D03*
%TO.P,R2,2*%
%TO.N,Net-(R1-Pad1)*%
X79810000Y-71500000D03*
%TD*%
D15*
%TO.P,U1,1,PB0_1*%
%TO.N,Net-(U1-PB0)*%
X65180000Y-99240000D03*
D10*
%TO.P,U1,2,PB1_2*%
%TO.N,Net-(U1-PB1)*%
X67720000Y-99240000D03*
%TO.P,U1,3,PB2_3*%
%TO.N,Net-(U1-PB2)*%
X70260000Y-99240000D03*
%TO.P,U1,4,PB3_4*%
%TO.N,Net-(U1-PB3)*%
X72800000Y-99240000D03*
%TO.P,U1,5,PB4_5*%
%TO.N,Net-(U1-PB4)*%
X75340000Y-99240000D03*
%TO.P,U1,6,PB5_6*%
%TO.N,/BUZZER*%
X77880000Y-99240000D03*
%TO.P,U1,7,PB6_7*%
%TO.N,unconnected-(U1-PB6-Pad7)*%
X80420000Y-99240000D03*
%TO.P,U1,8,PB7_8*%
%TO.N,unconnected-(U1-PB7-Pad8)*%
X82960000Y-99240000D03*
%TO.P,U1,9,~{RESET}_9*%
%TO.N,Net-(U1-~{RESET})*%
X85500000Y-99240000D03*
%TO.P,U1,10,VCC_10*%
%TO.N,+5V*%
X88040000Y-99240000D03*
%TO.P,U1,11,GND_11*%
X90580000Y-99240000D03*
%TO.P,U1,12,XTAL2_12*%
%TO.N,Net-(U1-XTAL2)*%
X93120000Y-99240000D03*
%TO.P,U1,13,XTAL1_13*%
%TO.N,Net-(U1-XTAL1)*%
X95660000Y-99240000D03*
%TO.P,U1,14,PD0_14*%
%TO.N,Net-(DS1-RS)*%
X98200000Y-99240000D03*
%TO.P,U1,15,PD1_15*%
%TO.N,Net-(DS1-E)*%
X100740000Y-99240000D03*
%TO.P,U1,16,PD2_16*%
%TO.N,unconnected-(U1-PD2-Pad16)*%
X103280000Y-99240000D03*
%TO.P,U1,17,PD3_17*%
%TO.N,unconnected-(U1-PD3-Pad17)*%
X105820000Y-99240000D03*
%TO.P,U1,18,PD4_18*%
%TO.N,Net-(DS1-D4)*%
X108360000Y-99240000D03*
%TO.P,U1,19,PD5_19*%
%TO.N,Net-(DS1-D5)*%
X110900000Y-99240000D03*
%TO.P,U1,20,PD6_20*%
%TO.N,Net-(DS1-D6)*%
X113440000Y-99240000D03*
%TO.P,U1,21,PD7_21*%
%TO.N,Net-(DS1-D7)*%
X113440000Y-84000000D03*
%TO.P,U1,22,PC0_22*%
%TO.N,unconnected-(U1-PC0-Pad22)*%
X110900000Y-84000000D03*
%TO.P,U1,23,PC1_23*%
%TO.N,unconnected-(U1-PC1-Pad23)*%
X108360000Y-84000000D03*
%TO.P,U1,24,PC2_24*%
%TO.N,unconnected-(U1-PC2-Pad24)*%
X105820000Y-84000000D03*
%TO.P,U1,25,PC3_25*%
%TO.N,unconnected-(U1-PC3-Pad25)*%
X103280000Y-84000000D03*
%TO.P,U1,26,PC4_26*%
%TO.N,unconnected-(U1-PC4-Pad26)*%
X100740000Y-84000000D03*
%TO.P,U1,27,PC5_27*%
%TO.N,unconnected-(U1-PC5-Pad27)*%
X98200000Y-84000000D03*
%TO.P,U1,28,PC6_28*%
%TO.N,unconnected-(U1-PC6-Pad28)*%
X95660000Y-84000000D03*
%TO.P,U1,29,PC7_29*%
%TO.N,unconnected-(U1-PC7-Pad29)*%
X93120000Y-84000000D03*
%TO.P,U1,30,AVCC_30*%
%TO.N,+5V*%
X90580000Y-84000000D03*
%TO.P,U1,31,GND_31*%
X88040000Y-84000000D03*
%TO.P,U1,32,AREF_32*%
%TO.N,Net-(U1-AREF)*%
X85500000Y-84000000D03*
%TO.P,U1,33,PA7_33*%
%TO.N,unconnected-(U1-PA7-Pad33)*%
X82960000Y-84000000D03*
%TO.P,U1,34,PA6_34*%
%TO.N,unconnected-(U1-PA6-Pad34)*%
X80420000Y-84000000D03*
%TO.P,U1,35,PA5_35*%
%TO.N,unconnected-(U1-PA5-Pad35)*%
X77880000Y-84000000D03*
%TO.P,U1,36,PA4_36*%
%TO.N,unconnected-(U1-PA4-Pad36)*%
X75340000Y-84000000D03*
%TO.P,U1,37,PA3_37*%
%TO.N,unconnected-(U1-PA3-Pad37)*%
X72800000Y-84000000D03*
%TO.P,U1,38,PA2_38*%
%TO.N,unconnected-(U1-PA2-Pad38)*%
X70260000Y-84000000D03*
%TO.P,U1,39,PA1_39*%
%TO.N,Net-(U1-PA1)*%
X67720000Y-84000000D03*
%TO.P,U1,40,PA0_40*%
%TO.N,Net-(U1-PA0)*%
X65180000Y-84000000D03*
%TD*%
%TO.P,R7,1*%
%TO.N,Net-(Q1-B)*%
X63620000Y-144500000D03*
%TO.P,R7,2*%
%TO.N,Net-(U1-PB3)*%
X56000000Y-144500000D03*
%TD*%
D13*
%TO.P,D1,1,K_1*%
%TO.N,GND*%
X79460000Y-151000000D03*
D14*
%TO.P,D1,2,A_2*%
%TO.N,Net-(D1-A)*%
X82000000Y-151000000D03*
%TD*%
D12*
%TO.P,SW2,1,1_1*%
%TO.N,Net-(U1-~{RESET})*%
X143000000Y-41500000D03*
X143000000Y-48000000D03*
%TO.P,SW2,2,2_2*%
%TO.N,GND*%
X138500000Y-41500000D03*
X138500000Y-48000000D03*
%TD*%
D13*
%TO.P,D3,1,K_1*%
%TO.N,GND*%
X99000000Y-152275000D03*
D14*
%TO.P,D3,2,A_2*%
%TO.N,Net-(D3-A)*%
X99000000Y-149735000D03*
%TD*%
D10*
%TO.P,C4,1*%
%TO.N,+5V*%
X132000000Y-96000000D03*
%TO.P,C4,2*%
%TO.N,GND*%
X132000000Y-91000000D03*
%TD*%
D16*
%TO.P,Q2,1,C_1*%
%TO.N,Net-(BZ1--)*%
X115140000Y-144730000D03*
D17*
%TO.P,Q2,2,B_2*%
%TO.N,Net-(Q2-B)*%
X115140000Y-146000000D03*
%TO.P,Q2,3,E_3*%
%TO.N,GND*%
X115140000Y-147270000D03*
%TD*%
D10*
%TO.P,R4,1*%
%TO.N,Net-(D1-A)*%
X78190000Y-140500000D03*
%TO.P,R4,2*%
%TO.N,Net-(U1-PB0)*%
X85810000Y-140500000D03*
%TD*%
%TO.P,R3,1*%
%TO.N,Net-(D2-A)*%
X89190000Y-140500000D03*
%TO.P,R3,2*%
%TO.N,Net-(U1-PB1)*%
X96810000Y-140500000D03*
%TD*%
%TO.P,C6,1*%
%TO.N,Net-(U1-~{RESET})*%
X143000000Y-63500000D03*
%TO.P,C6,2*%
%TO.N,GND*%
X138000000Y-63500000D03*
%TD*%
D13*
%TO.P,D4,1,K_1*%
%TO.N,+5V*%
X49040000Y-141000000D03*
D14*
%TO.P,D4,2,A_2*%
%TO.N,Net-(D4-A)*%
X46500000Y-141000000D03*
%TD*%
D10*
%TO.P,C1,1*%
%TO.N,Net-(U1-XTAL1)*%
X33000000Y-87500000D03*
%TO.P,C1,2*%
%TO.N,GND*%
X38000000Y-87500000D03*
%TD*%
%TO.P,C3,1*%
%TO.N,Net-(U1-AREF)*%
X45500000Y-93500000D03*
%TO.P,C3,2*%
%TO.N,GND*%
X50500000Y-93500000D03*
%TD*%
D18*
%TO.P,DS1,*%
%TO.N,*%
X100859100Y-51000000D03*
X100859100Y-19999300D03*
X25860520Y-19999300D03*
X25860000Y-51000000D03*
D19*
%TO.P,DS1,1,VSS_1*%
%TO.N,GND*%
X95360000Y-51000000D03*
D20*
%TO.P,DS1,2,VDD_2*%
%TO.N,+5V*%
X92820000Y-51000000D03*
%TO.P,DS1,3,VO_3*%
%TO.N,GND*%
X90280000Y-51000000D03*
%TO.P,DS1,4,RS_4*%
%TO.N,Net-(DS1-RS)*%
X87740000Y-51000000D03*
%TO.P,DS1,5,R/W_5*%
%TO.N,GND*%
X85200000Y-51000000D03*
%TO.P,DS1,6,E_6*%
%TO.N,Net-(DS1-E)*%
X82660000Y-51000000D03*
%TO.P,DS1,7,D0_7*%
%TO.N,unconnected-(DS1-D0-Pad7)*%
X80120000Y-51000000D03*
%TO.P,DS1,8,D1_8*%
%TO.N,unconnected-(DS1-D1-Pad8)*%
X77580000Y-51000000D03*
%TO.P,DS1,9,D2_9*%
%TO.N,unconnected-(DS1-D2-Pad9)*%
X75040000Y-51000000D03*
%TO.P,DS1,10,D3_10*%
%TO.N,unconnected-(DS1-D3-Pad10)*%
X72500000Y-51000000D03*
%TO.P,DS1,11,D4_11*%
%TO.N,Net-(DS1-D4)*%
X69960000Y-51000000D03*
%TO.P,DS1,12,D5_12*%
%TO.N,Net-(DS1-D5)*%
X67420000Y-51000000D03*
%TO.P,DS1,13,D6_13*%
%TO.N,Net-(DS1-D6)*%
X64880000Y-51000000D03*
%TO.P,DS1,14,D7_14*%
%TO.N,Net-(DS1-D7)*%
X62340000Y-51000000D03*
%TO.P,DS1,15,LED(+)_15*%
%TO.N,Net-(DS1-LED(+))*%
X59800000Y-51000000D03*
%TO.P,DS1,16,LED(-)_16*%
%TO.N,GND*%
X57260000Y-51000000D03*
%TD*%
D21*
%TO.P,BZ1,1,+_1*%
%TO.N,+5V*%
X140000000Y-149300000D03*
D12*
%TO.P,BZ1,2,-_2*%
%TO.N,Net-(BZ1--)*%
X140000000Y-141700000D03*
%TD*%
D22*
%TO.P,Q1,1,C_1*%
%TO.N,Net-(D4-A)*%
X46000000Y-157000000D03*
D23*
%TO.P,Q1,2,B_2*%
%TO.N,Net-(Q1-B)*%
X47270000Y-157000000D03*
%TO.P,Q1,3,E_3*%
%TO.N,GND*%
X48540000Y-157000000D03*
%TD*%
D24*
%TO.P,K1,11*%
%TO.N,unconnected-(K1-Pad11)*%
X28190000Y-147000000D03*
X35810000Y-147000000D03*
%TO.P,K1,12*%
%TO.N,unconnected-(K1-Pad12)*%
X28190000Y-134300000D03*
%TO.P,K1,14*%
%TO.N,unconnected-(K1-Pad14)*%
X35810000Y-134300000D03*
D25*
%TO.P,K1,A1*%
%TO.N,Net-(D4-A)*%
X28190000Y-136840000D03*
D24*
%TO.P,K1,A2*%
%TO.N,+5V*%
X35810000Y-136840000D03*
%TD*%
D10*
%TO.P,R10,1*%
%TO.N,Net-(DS1-LED(+))*%
X86190000Y-105500000D03*
%TO.P,R10,2*%
%TO.N,+5V*%
X93810000Y-105500000D03*
%TD*%
%TO.P,R11,1*%
%TO.N,+5V*%
X109690000Y-61500000D03*
%TO.P,R11,2*%
%TO.N,Net-(U1-~{RESET})*%
X117310000Y-61500000D03*
%TD*%
%TO.P,C2,1*%
%TO.N,Net-(U1-XTAL2)*%
X40500000Y-77500000D03*
%TO.P,C2,2*%
%TO.N,GND*%
X40500000Y-72500000D03*
%TD*%
%TO.P,R8,1*%
%TO.N,Net-(Q2-B)*%
X116310000Y-129500000D03*
%TO.P,R8,2*%
%TO.N,Net-(U1-PB4)*%
X108690000Y-129500000D03*
%TD*%
%TO.P,R6,1*%
%TO.N,Net-(D3-A)*%
X99880000Y-141000000D03*
%TO.P,R6,2*%
%TO.N,Net-(U1-PB2)*%
X107500000Y-141000000D03*
%TD*%
D26*
%TO.N,+5V*%
X55500000Y-93000000D03*
X63400000Y-83000000D03*
%TO.N,Net-(U1-PA1)*%
X116700000Y-47725897D03*
X80702919Y-74797083D03*
%TO.N,Net-(R1-Pad1)*%
X78801447Y-71198552D03*
X77452918Y-71547081D03*
%TO.N,Net-(U1-XTAL2)*%
X87245635Y-97442691D03*
%TO.N,GND*%
X74202919Y-68297083D03*
X54998402Y-149998402D03*
%TO.N,Net-(U1-PB4)*%
X76752083Y-98247919D03*
%TO.N,Net-(U1-~{RESET})*%
X86000000Y-94500000D03*
%TO.N,Net-(DS1-RS)*%
X91707207Y-73292793D03*
X94674265Y-69174265D03*
%TO.N,Net-(DS1-E)*%
X94820000Y-76405584D03*
%TO.N,Net-(DS1-D4)*%
X71235089Y-52000000D03*
%TO.N,Net-(DS1-D5)*%
X97230735Y-80730735D03*
%TD*%
%TO.N,+5V*%
D27*
X140000000Y-149300000D02*
X132000000Y-141300000D01*
X92820000Y-51260000D02*
X92820000Y-51000000D01*
X44880000Y-136840000D02*
X35810000Y-136840000D01*
X56310000Y-83000000D02*
X47500000Y-74190000D01*
X114540000Y-66350000D02*
X109690000Y-61500000D01*
X90580000Y-84000000D02*
X90580000Y-94804365D01*
X56310000Y-83000000D02*
X63400000Y-83000000D01*
X90580000Y-94804365D02*
X94560000Y-98784365D01*
X132000000Y-141300000D02*
X132000000Y-96000000D01*
X132000000Y-96000000D02*
X122500000Y-105500000D01*
X47500000Y-74190000D02*
X47500000Y-73000000D01*
X93810000Y-102470000D02*
X90580000Y-99240000D01*
X88260000Y-99240000D02*
X90580000Y-99240000D01*
X95204365Y-100340000D02*
X113895635Y-100340000D01*
X44880000Y-136840000D02*
X44880000Y-103620000D01*
X88040000Y-99460000D02*
X88260000Y-99240000D01*
X44880000Y-103620000D02*
X55500000Y-93000000D01*
X93810000Y-102470000D02*
X93810000Y-101734365D01*
X56310000Y-83000000D02*
X56000000Y-83000000D01*
X114540000Y-99695635D02*
X114540000Y-66350000D01*
X93810000Y-101734365D02*
X95204365Y-100340000D01*
X88040000Y-99240000D02*
X88040000Y-99460000D01*
X113895635Y-100340000D02*
X114540000Y-99695635D01*
X93810000Y-105500000D02*
X93810000Y-102470000D01*
X94560000Y-99695635D02*
X95204365Y-100340000D01*
X94560000Y-98784365D02*
X94560000Y-99695635D01*
X49040000Y-141000000D02*
X44880000Y-136840000D01*
X109690000Y-61500000D02*
X103060000Y-61500000D01*
X103060000Y-61500000D02*
X92820000Y-51260000D01*
X122500000Y-105500000D02*
X93810000Y-105500000D01*
%TO.N,Net-(U1-PA1)*%
X66220000Y-85500000D02*
X67720000Y-84000000D01*
X116700000Y-47725897D02*
X117425897Y-47000000D01*
X67720000Y-84000000D02*
X68000000Y-84000000D01*
X117425897Y-47000000D02*
X122500000Y-47000000D01*
X68000000Y-84000000D02*
X77202917Y-74797083D01*
X51190000Y-85500000D02*
X66220000Y-85500000D01*
X77202917Y-74797083D02*
X80702919Y-74797083D01*
X48690000Y-83000000D02*
X51190000Y-85500000D01*
%TO.N,Net-(U1-PA0)*%
X65000000Y-84000000D02*
X65100000Y-83900000D01*
X65180000Y-84000000D02*
X65000000Y-84000000D01*
X65100000Y-71000000D02*
X64000000Y-69900000D01*
X65100000Y-83900000D02*
X65100000Y-71000000D01*
%TO.N,Net-(R1-Pad1)*%
X66280000Y-82719999D02*
X66280000Y-84455635D01*
X65635635Y-85100000D02*
X64724365Y-85100000D01*
X66280000Y-84455635D02*
X65635635Y-85100000D01*
X79810000Y-71500000D02*
X79102895Y-71500000D01*
X64724365Y-85100000D02*
X64000000Y-84375635D01*
X55120000Y-73000000D02*
X59500000Y-73000000D01*
X64000000Y-84375635D02*
X64000000Y-77500000D01*
X77452918Y-71547081D02*
X66280000Y-82719999D01*
X59500000Y-73000000D02*
X64000000Y-77500000D01*
X79102895Y-71500000D02*
X78801447Y-71198552D01*
%TO.N,Net-(U1-XTAL1)*%
X35060000Y-97500000D02*
X35060000Y-71102944D01*
X35060000Y-97500000D02*
X35060000Y-89560000D01*
X35060000Y-71102944D02*
X56762944Y-49400000D01*
X61000000Y-52045635D02*
X79354365Y-70400000D01*
X79354365Y-70400000D02*
X80265635Y-70400000D01*
X61000000Y-50102944D02*
X61000000Y-52045635D01*
X56762944Y-49400000D02*
X60297056Y-49400000D01*
X35060000Y-89560000D02*
X33000000Y-87500000D01*
X80265635Y-70400000D02*
X91695635Y-81830000D01*
X60297056Y-49400000D02*
X61000000Y-50102944D01*
X91695635Y-95275635D02*
X95660000Y-99240000D01*
X91695635Y-81830000D02*
X91695635Y-95275635D01*
%TO.N,Net-(U1-XTAL2)*%
X40500000Y-78000000D02*
X39940000Y-78560000D01*
X40500000Y-77500000D02*
X40500000Y-78000000D01*
X39940000Y-78560000D02*
X39940000Y-97500000D01*
X91442691Y-97442691D02*
X87245635Y-97442691D01*
X93120000Y-99240000D02*
X93120000Y-99120000D01*
X93120000Y-99120000D02*
X91442691Y-97442691D01*
%TO.N,GND*%
X57260000Y-55740000D02*
X40500000Y-72500000D01*
X95360000Y-51000000D02*
X95500000Y-51000000D01*
X57260000Y-51000000D02*
X57260000Y-55740000D01*
X54998402Y-150541598D02*
X54998402Y-149998402D01*
X104005000Y-147270000D02*
X99000000Y-152275000D01*
X143455635Y-64600000D02*
X139100000Y-64600000D01*
X138500000Y-41500000D02*
X137500000Y-42500000D01*
X95500000Y-51000000D02*
X100500000Y-46000000D01*
X54540000Y-151000000D02*
X54520000Y-151020000D01*
X54520000Y-151020000D02*
X54998402Y-150541598D01*
X38000000Y-75000000D02*
X38000000Y-87500000D01*
X115140000Y-147270000D02*
X104005000Y-147270000D01*
X89465000Y-152275000D02*
X89230000Y-152040000D01*
X57260000Y-56570000D02*
X57260000Y-51000000D01*
X38000000Y-97044925D02*
X39505075Y-98550000D01*
X89070000Y-152200000D02*
X80660000Y-152200000D01*
X132000000Y-91000000D02*
X132000000Y-89500000D01*
X72000000Y-70500000D02*
X74202919Y-68297083D01*
X39505075Y-98550000D02*
X45450000Y-98550000D01*
X54520000Y-151020000D02*
X48540000Y-157000000D01*
X138500000Y-41500000D02*
X139800000Y-40200000D01*
X38000000Y-87500000D02*
X38000000Y-97044925D01*
X143538478Y-40200000D02*
X144300000Y-40961522D01*
X138000000Y-83500000D02*
X138000000Y-63500000D01*
X72000000Y-71500000D02*
X72000000Y-70500000D01*
X72190000Y-71500000D02*
X57260000Y-56570000D01*
X138500000Y-48000000D02*
X137500000Y-47000000D01*
X112500000Y-46000000D02*
X116000000Y-42500000D01*
X139100000Y-64600000D02*
X138000000Y-63500000D01*
X80660000Y-152200000D02*
X79460000Y-151000000D01*
X100500000Y-46000000D02*
X112500000Y-46000000D01*
X72190000Y-71500000D02*
X72000000Y-71500000D01*
X132000000Y-89500000D02*
X138000000Y-83500000D01*
X40500000Y-72500000D02*
X38000000Y-75000000D01*
X89230000Y-152040000D02*
X89070000Y-152200000D01*
X139800000Y-40200000D02*
X143538478Y-40200000D01*
X79460000Y-151000000D02*
X54540000Y-151000000D01*
X99000000Y-152275000D02*
X89465000Y-152275000D01*
X144300000Y-40961522D02*
X144300000Y-63755635D01*
X137500000Y-47000000D02*
X137500000Y-42500000D01*
X137500000Y-42500000D02*
X116000000Y-42500000D01*
X144300000Y-63755635D02*
X143455635Y-64600000D01*
X45450000Y-98550000D02*
X50500000Y-93500000D01*
%TO.N,Net-(D2-A)*%
X89230000Y-149500000D02*
X89230000Y-140540000D01*
X89230000Y-140540000D02*
X89190000Y-140500000D01*
%TO.N,Net-(U1-PB0)*%
X85810000Y-140500000D02*
X86609999Y-139700001D01*
X86609999Y-139700001D02*
X86609999Y-122609999D01*
X54900000Y-144955635D02*
X54900000Y-109520000D01*
X54900000Y-109520000D02*
X65180000Y-99240000D01*
X86609999Y-122609999D02*
X85810000Y-121810000D01*
X80245635Y-121810000D02*
X56455635Y-145600000D01*
X56455635Y-145600000D02*
X55544365Y-145600000D01*
X55544365Y-145600000D02*
X54900000Y-144955635D01*
X85810000Y-121810000D02*
X80245635Y-121810000D01*
%TO.N,Net-(U1-PB1)*%
X107955635Y-142100000D02*
X108600000Y-141455635D01*
X96810000Y-140500000D02*
X97609999Y-139700001D01*
X108600000Y-141455635D02*
X108600000Y-140544365D01*
X108600000Y-140544365D02*
X76440000Y-108384365D01*
X104644366Y-139700001D02*
X107044365Y-142100000D01*
X97609999Y-139700001D02*
X104644366Y-139700001D01*
X107044365Y-142100000D02*
X107955635Y-142100000D01*
X76440000Y-98784365D02*
X75395635Y-97740000D01*
X69220000Y-97740000D02*
X67720000Y-99240000D01*
X76440000Y-108384365D02*
X76440000Y-98784365D01*
X75395635Y-97740000D02*
X69220000Y-97740000D01*
%TO.N,Net-(U1-PB2)*%
X74240000Y-107740000D02*
X107500000Y-141000000D01*
X74240000Y-99124365D02*
X74240000Y-107740000D01*
X71360000Y-98140000D02*
X73255635Y-98140000D01*
X73255635Y-98140000D02*
X74240000Y-99124365D01*
X70260000Y-99240000D02*
X71360000Y-98140000D01*
%TO.N,Net-(U1-PB3)*%
X56000000Y-116040000D02*
X72800000Y-99240000D01*
X56000000Y-144500000D02*
X56000000Y-116040000D01*
%TO.N,Net-(U1-PB4)*%
X75500000Y-99000000D02*
X75840000Y-99340000D01*
X78980000Y-98784365D02*
X78347817Y-98152183D01*
X75340000Y-99240000D02*
X75340000Y-99160000D01*
X106000000Y-129500000D02*
X78980000Y-102480000D01*
X108690000Y-129500000D02*
X106000000Y-129500000D01*
X78335635Y-98140000D02*
X76860002Y-98140000D01*
X75340000Y-99160000D02*
X75500000Y-99000000D01*
X75340000Y-99240000D02*
X75349544Y-99240000D01*
X78347817Y-98152183D02*
X78335635Y-98140000D01*
X75349544Y-99240000D02*
X75839747Y-98749797D01*
X78980000Y-102480000D02*
X78980000Y-98784365D01*
X76860002Y-98140000D02*
X76752083Y-98247919D01*
%TO.N,Net-(U1-~{RESET})*%
X143000000Y-63500000D02*
X143000000Y-41500000D01*
X85500000Y-99240000D02*
X85500000Y-99500000D01*
X86000000Y-99000000D02*
X86000000Y-94500000D01*
X85500000Y-99500000D02*
X86000000Y-99000000D01*
X141000000Y-61500000D02*
X117310000Y-61500000D01*
X143000000Y-63500000D02*
X141000000Y-61500000D01*
%TO.N,Net-(DS1-RS)*%
X94674265Y-69174265D02*
X94674265Y-57934265D01*
X94674265Y-57934265D02*
X87740000Y-51000000D01*
X94220000Y-95260000D02*
X94220000Y-75805586D01*
X94220000Y-75805586D02*
X91707207Y-73292793D01*
X98200000Y-99240000D02*
X94220000Y-95260000D01*
%TO.N,Net-(DS1-E)*%
X100740000Y-99240000D02*
X96760000Y-95260000D01*
X96760000Y-95260000D02*
X96760000Y-81140000D01*
X96760000Y-81140000D02*
X94820000Y-79200000D01*
X94820000Y-79200000D02*
X94820000Y-76405584D01*
%TO.N,Net-(DS1-D4)*%
X69960000Y-51000000D02*
X70235089Y-51000000D01*
X70235089Y-51000000D02*
X71235089Y-52000000D01*
%TO.N,Net-(DS1-D5)*%
X66714314Y-51000000D02*
X66645686Y-51068628D01*
X99300000Y-87800000D02*
X99300000Y-82800000D01*
X110900000Y-99400000D02*
X99300000Y-87800000D01*
X99300000Y-82800000D02*
X97230735Y-80730735D01*
X110900000Y-99240000D02*
X110900000Y-99400000D01*
%TO.N,Net-(DS1-D6)*%
X102180000Y-82917056D02*
X71862944Y-52600000D01*
X113440000Y-99240000D02*
X102180000Y-87980000D01*
X102180000Y-87980000D02*
X102180000Y-82917056D01*
X71862944Y-52600000D02*
X66480000Y-52600000D01*
X66480000Y-52600000D02*
X64880000Y-51000000D01*
%TO.N,Net-(DS1-D7)*%
X63940000Y-49400000D02*
X72997056Y-49400000D01*
X104842944Y-82900000D02*
X112340000Y-82900000D01*
X62340000Y-51000000D02*
X63940000Y-49400000D01*
X72997056Y-49400000D02*
X73700000Y-50102944D01*
X73700000Y-50102944D02*
X73700000Y-51757056D01*
X73700000Y-51757056D02*
X104842944Y-82900000D01*
X112340000Y-82900000D02*
X113440000Y-84000000D01*
%TO.N,Net-(U1-AREF)*%
X86645635Y-106600000D02*
X87290000Y-105955635D01*
X75475635Y-92400000D02*
X81860000Y-98784365D01*
X81860000Y-102725635D02*
X85734365Y-106600000D01*
X87290000Y-105955635D02*
X87290000Y-105044365D01*
X85734365Y-106600000D02*
X86645635Y-106600000D01*
X46600000Y-92400000D02*
X75475635Y-92400000D01*
X45500000Y-93500000D02*
X46600000Y-92400000D01*
X81860000Y-98784365D02*
X81860000Y-102725635D01*
X87290000Y-105044365D02*
X86645635Y-104400000D01*
X86645635Y-85145635D02*
X85500000Y-84000000D01*
X86645635Y-104400000D02*
X86645635Y-85145635D01*
%TO.N,Net-(Q1-B)*%
X47270000Y-157000000D02*
X47270000Y-156878274D01*
X47270000Y-156878274D02*
X59648274Y-144500000D01*
X59648274Y-144500000D02*
X63620000Y-144500000D01*
%TO.N,Net-(D1-A)*%
X82000000Y-144310000D02*
X78190000Y-140500000D01*
X82000000Y-151000000D02*
X82000000Y-144310000D01*
%TO.N,Net-(D3-A)*%
X99000000Y-149735000D02*
X99000000Y-141880000D01*
X99000000Y-141880000D02*
X99880000Y-141000000D01*
%TO.N,Net-(BZ1--)*%
X122600000Y-150600000D02*
X116730000Y-144730000D01*
X140000000Y-141700000D02*
X141300000Y-143000000D01*
X141300000Y-143000000D02*
X141300000Y-150600000D01*
X141300000Y-150600000D02*
X122600000Y-150600000D01*
X116730000Y-144730000D02*
X115140000Y-144730000D01*
%TO.N,Net-(Q2-B)*%
X114090000Y-131720000D02*
X116310000Y-129500000D01*
X114090000Y-145555000D02*
X114090000Y-131720000D01*
X115140000Y-146000000D02*
X114535000Y-146000000D01*
X114535000Y-146000000D02*
X114090000Y-145555000D01*
%TO.N,Net-(D4-A)*%
X46500000Y-156000000D02*
X46500000Y-141000000D01*
X46500000Y-141000000D02*
X32350000Y-141000000D01*
X46000000Y-156500000D02*
X46500000Y-156000000D01*
X46000000Y-157000000D02*
X46000000Y-156500000D01*
X32350000Y-141000000D02*
X28190000Y-136840000D01*
%TO.N,Net-(DS1-LED(+))*%
X84400000Y-103710000D02*
X84400000Y-77645635D01*
X59800000Y-53045635D02*
X59800000Y-51000000D01*
X84400000Y-77645635D02*
X59800000Y-53045635D01*
X86190000Y-105500000D02*
X84400000Y-103710000D01*
%TO.N,unconnected-(K1-Pad11)*%
X35810000Y-147000000D02*
X28190000Y-147000000D01*
%TD*%
M02*
